<?xml version="1.0" encoding="UTF-8"?>
<svg width="24" height="24" viewBox="0 0 24 24" fill="none" xmlns="http://www.w3.org/2000/svg">
  <path d="M12 4H8V8H12V4Z" fill="currentColor"/>
  <path d="M16 4H12V8H16V4Z" fill="currentColor"/>
  <path d="M20 4H16V8H20V4Z" fill="currentColor"/>
  <path d="M12 8H8V12H12V8Z" fill="currentColor"/>
  <path d="M16 8H12V12H16V8Z" fill="currentColor"/>
  <path d="M20 8H16V12H20V8Z" fill="currentColor"/>
  <path d="M12 12H8V16H12V12Z" fill="currentColor"/>
  <path d="M16 12H12V16H16V12Z" fill="currentColor"/>
  <path d="M20 12H16V16H20V12Z" fill="currentColor"/>
  <path d="M12 16H8V20H12V16Z" fill="currentColor"/>
  <path d="M16 16H12V20H16V16Z" fill="currentColor"/>
  <path d="M20 16H16V20H20V16Z" fill="currentColor"/>
</svg> 